<?xml version="1.0" encoding="UTF-8"?> <svg xmlns="http://www.w3.org/2000/svg" xmlns:xlink="http://www.w3.org/1999/xlink" xmlns:svgjs="http://svgjs.com/svgjs" version="1.1" width="512" height="512" x="0" y="0" viewBox="0 0 512 512" style="enable-background:new 0 0 512 512" xml:space="preserve" class=""><g><g xmlns="http://www.w3.org/2000/svg"><path d="m161.133 237.6c5.833-5.884 5.791-15.381-.093-21.213-53.158-52.694-53.385-137.84-.902-190.832 5.83-5.886 5.784-15.383-.103-21.213-5.885-5.83-15.383-5.784-21.213.103-64.098 64.719-63.885 168.833 1.098 233.248 5.878 5.827 15.376 5.795 21.213-.093z" fill="#5f6479" data-original="#000000" style="" class=""></path><path d="m350.96 216.387c-5.883 5.832-5.925 15.329-.093 21.213 5.803 5.854 15.299 5.954 21.213.093 64.952-64.385 65.223-168.501 1.098-233.248-5.83-5.887-15.327-5.932-21.213-.103-5.886 5.83-5.932 15.327-.103 21.213 52.457 52.965 52.285 138.11-.902 190.832z" fill="#5f6479" data-original="#000000" style="" class=""></path><path d="m182.384 195.316c5.921 5.821 15.418 5.714 21.212-.18 5.808-5.908 5.727-15.405-.18-21.212-29.683-29.182-29.855-76.536-.834-105.973 5.816-5.899 5.748-15.396-.151-21.213-5.899-5.815-15.396-5.748-21.213.151-40.585 41.168-40.436 107.527 1.166 148.427z" fill="#5f6479" data-original="#000000" style="" class=""></path><path d="m308.404 195.136c5.808 5.908 15.306 5.988 21.212.18 41.56-40.859 41.797-107.213 1.166-148.427-5.817-5.9-15.314-5.967-21.213-.151s-5.967 15.313-.151 21.213c28.987 29.403 28.88 76.76-.834 105.973-5.907 5.808-5.988 15.305-.18 21.212z" fill="#5f6479" data-original="#000000" style="" class=""></path><path d="m436 482h-50.16c-.69-1.626-21.454-50.263-114.84-269.053v-50.007c17.459-6.192 30-22.865 30-42.42 0-24.813-20.187-45-45-45s-45 20.187-45 45c0 19.555 12.541 36.228 30 42.42v49.932c-23.006 53.899-113.363 265.576-114.873 269.128h-50.127c-8.284 0-15 6.716-15 15s6.716 15 15 15h360c8.284 0 15-6.716 15-15s-6.716-15-15-15zm-238.412-91h43.412v30h-56.217zm73.412 0h43.38l12.805 30h-56.185zm68.99 60 13.232 31h-82.222v-31zm-38.415-90h-30.575v-71.632zm-45.575-255.48c8.271 0 15 6.729 15 15s-6.729 15-15 15-15-6.729-15-15 6.729-15 15-15zm-15 255.48h-30.607l30.607-71.708zm-69.022 90h69.022v31h-82.254z" fill="#5f6479" data-original="#000000" style="" class=""></path></g></g></svg> 